<svg data-v-423bf9ae="" xmlns="http://www.w3.org/2000/svg" viewBox="0 0 426 90" class="iconLeftSlogan"><!----><!----><!----><g data-v-423bf9ae="" id="2d6faa31-1e78-4719-9d84-b5df95b0d27e" fill="#0C203C" transform="matrix(6.054490506946714,0,0,6.054490506946714,80.94128110111328,-25.428858020699465)"><path d="M3.60 6.76Q4.45 6.76 5.09 7.06Q5.73 7.36 6.07 7.90Q6.41 8.44 6.41 9.13L6.41 9.13L6.41 13.79Q6.41 13.89 6.36 13.94Q6.30 14 6.20 14L6.20 14L5.28 14Q5.18 14 5.12 13.94Q5.07 13.89 5.07 13.79L5.07 13.79L5.07 13.40Q5.07 13.36 5.04 13.34Q5.01 13.33 4.98 13.36L4.98 13.36Q4.59 13.72 4.05 13.92Q3.51 14.11 2.88 14.11L2.88 14.11Q1.86 14.11 1.20 13.59Q0.55 13.06 0.55 12.00L0.55 12.00Q0.55 10.91 1.31 10.28Q2.07 9.66 3.44 9.66L3.44 9.66L5.00 9.66Q5.07 9.66 5.07 9.59L5.07 9.59L5.07 9.23Q5.07 8.61 4.71 8.27Q4.35 7.92 3.63 7.92L3.63 7.92Q3.05 7.92 2.69 8.13Q2.34 8.34 2.23 8.72L2.23 8.72Q2.17 8.90 1.99 8.89L1.99 8.89L0.98 8.76Q0.88 8.75 0.83 8.70Q0.77 8.65 0.78 8.58L0.78 8.58Q0.91 7.78 1.69 7.27Q2.46 6.76 3.60 6.76L3.60 6.76ZM3.22 12.98Q3.96 12.98 4.51 12.59Q5.07 12.19 5.07 11.59L5.07 11.59L5.07 10.78Q5.07 10.71 5.00 10.71L5.00 10.71L3.70 10.71Q2.87 10.71 2.38 11.03Q1.89 11.35 1.89 11.93L1.89 11.93Q1.89 12.45 2.26 12.71Q2.63 12.98 3.22 12.98L3.22 12.98ZM13.97 8.72Q14.18 9.39 14.18 10.42L14.18 10.42Q14.18 11.51 13.93 12.21L13.93 12.21Q13.62 13.12 12.96 13.62Q12.29 14.11 11.28 14.11L11.28 14.11Q10.79 14.11 10.38 13.92Q9.97 13.73 9.66 13.38L9.66 13.38Q9.63 13.36 9.60 13.37Q9.58 13.38 9.58 13.43L9.58 13.43L9.58 13.79Q9.58 13.89 9.52 13.94Q9.46 14 9.37 14L9.37 14L8.44 14Q8.34 14 8.29 13.94Q8.23 13.89 8.23 13.79L8.23 13.79L8.23 4.41Q8.23 4.31 8.29 4.26Q8.34 4.20 8.44 4.20L8.44 4.20L9.37 4.20Q9.46 4.20 9.52 4.26Q9.58 4.31 9.58 4.41L9.58 4.41L9.58 7.45Q9.58 7.49 9.60 7.50Q9.63 7.50 9.66 7.48L9.66 7.48Q9.97 7.13 10.38 6.94Q10.79 6.76 11.28 6.76L11.28 6.76Q12.32 6.76 13.00 7.28Q13.68 7.80 13.97 8.72L13.97 8.72ZM12.49 12.18Q12.84 11.52 12.84 10.44L12.84 10.44Q12.84 9.30 12.39 8.60L12.39 8.60Q11.96 7.92 11.14 7.92L11.14 7.92Q10.36 7.92 9.95 8.64L9.95 8.64Q9.59 9.28 9.59 10.43L9.59 10.43Q9.59 11.58 9.93 12.19L9.93 12.19Q10.35 12.95 11.14 12.95L11.14 12.95Q12.08 12.95 12.49 12.18L12.49 12.18ZM19.00 6.80Q19.42 6.80 19.75 6.96L19.75 6.96Q19.91 7.04 19.87 7.22L19.87 7.22L19.67 8.13Q19.66 8.27 19.53 8.27L19.53 8.27Q19.46 8.27 19.42 8.26L19.42 8.26Q19.21 8.19 18.94 8.19L18.94 8.19Q18.80 8.19 18.73 8.20L18.73 8.20Q18.07 8.23 17.65 8.66Q17.22 9.09 17.22 9.77L17.22 9.77L17.22 13.79Q17.22 13.89 17.16 13.94Q17.11 14 17.01 14L17.01 14L16.09 14Q15.99 14 15.93 13.94Q15.88 13.89 15.88 13.79L15.88 13.79L15.88 7.08Q15.88 6.99 15.93 6.93Q15.99 6.87 16.09 6.87L16.09 6.87L17.01 6.87Q17.11 6.87 17.16 6.93Q17.22 6.99 17.22 7.08L17.22 7.08L17.22 7.73Q17.22 7.78 17.24 7.79Q17.26 7.80 17.29 7.76L17.29 7.76Q17.92 6.80 19.00 6.80L19.00 6.80ZM23.88 14.11Q22.83 14.11 22.07 13.59Q21.31 13.06 21 12.12L21 12.12Q20.75 11.37 20.75 10.42L20.75 10.42Q20.75 9.42 20.99 8.74L20.99 8.74Q21.29 7.81 22.06 7.29Q22.83 6.76 23.90 6.76L23.90 6.76Q24.91 6.76 25.66 7.29Q26.40 7.81 26.73 8.72L26.73 8.72Q26.98 9.44 26.98 10.40L26.98 10.40Q26.98 11.38 26.73 12.12L26.73 12.12Q26.42 13.06 25.66 13.59Q24.91 14.11 23.88 14.11L23.88 14.11ZM23.88 12.95Q24.44 12.95 24.86 12.63Q25.28 12.32 25.47 11.75L25.47 11.75Q25.62 11.21 25.62 10.43L25.62 10.43Q25.62 9.65 25.48 9.13L25.48 9.13Q25.30 8.55 24.88 8.24Q24.46 7.92 23.86 7.92L23.86 7.92Q23.28 7.92 22.86 8.24Q22.44 8.55 22.26 9.13L22.26 9.13Q22.11 9.62 22.11 10.43L22.11 10.43Q22.11 11.24 22.26 11.75L22.26 11.75Q22.43 12.32 22.86 12.63Q23.28 12.95 23.88 12.95L23.88 12.95ZM31.35 6.76Q32.20 6.76 32.84 7.06Q33.47 7.36 33.82 7.90Q34.16 8.44 34.16 9.13L34.16 9.13L34.16 13.79Q34.16 13.89 34.10 13.94Q34.05 14 33.95 14L33.95 14L33.03 14Q32.93 14 32.87 13.94Q32.82 13.89 32.82 13.79L32.82 13.79L32.82 13.40Q32.82 13.36 32.79 13.34Q32.76 13.33 32.73 13.36L32.73 13.36Q32.34 13.72 31.80 13.92Q31.26 14.11 30.63 14.11L30.63 14.11Q29.61 14.11 28.95 13.59Q28.29 13.06 28.29 12.00L28.29 12.00Q28.29 10.91 29.06 10.28Q29.82 9.66 31.19 9.66L31.19 9.66L32.75 9.66Q32.82 9.66 32.82 9.59L32.82 9.59L32.82 9.23Q32.82 8.61 32.46 8.27Q32.10 7.92 31.37 7.92L31.37 7.92Q30.80 7.92 30.44 8.13Q30.09 8.34 29.97 8.72L29.97 8.72Q29.92 8.90 29.74 8.89L29.74 8.89L28.73 8.76Q28.63 8.75 28.57 8.70Q28.52 8.65 28.53 8.58L28.53 8.58Q28.66 7.78 29.44 7.27Q30.21 6.76 31.35 6.76L31.35 6.76ZM30.97 12.98Q31.71 12.98 32.26 12.59Q32.82 12.19 32.82 11.59L32.82 11.59L32.82 10.78Q32.82 10.71 32.75 10.71L32.75 10.71L31.44 10.71Q30.62 10.71 30.13 11.03Q29.64 11.35 29.64 11.93L29.64 11.93Q29.64 12.45 30.01 12.71Q30.38 12.98 30.97 12.98L30.97 12.98ZM40.31 4.41Q40.31 4.31 40.36 4.26Q40.42 4.20 40.52 4.20L40.52 4.20L41.44 4.20Q41.54 4.20 41.59 4.26Q41.65 4.31 41.65 4.41L41.65 4.41L41.65 13.79Q41.65 13.89 41.59 13.94Q41.54 14 41.44 14L41.44 14L40.52 14Q40.42 14 40.36 13.94Q40.31 13.89 40.31 13.79L40.31 13.79L40.31 13.43Q40.31 13.38 40.28 13.37Q40.25 13.36 40.22 13.38L40.22 13.38Q39.91 13.73 39.50 13.92Q39.09 14.11 38.60 14.11L38.60 14.11Q37.59 14.11 36.93 13.62Q36.26 13.12 35.95 12.21L35.95 12.21Q35.70 11.51 35.70 10.42L35.70 10.42Q35.70 9.39 35.91 8.72L35.91 8.72Q36.20 7.80 36.88 7.28Q37.56 6.76 38.60 6.76L38.60 6.76Q39.09 6.76 39.50 6.94Q39.91 7.13 40.22 7.48L40.22 7.48Q40.25 7.50 40.28 7.50Q40.31 7.49 40.31 7.45L40.31 7.45L40.31 4.41ZM39.96 12.19Q40.29 11.58 40.29 10.43L40.29 10.43Q40.29 9.28 39.93 8.64L39.93 8.64Q39.52 7.92 38.74 7.92L38.74 7.92Q37.93 7.92 37.49 8.60L37.49 8.60Q37.04 9.30 37.04 10.44L37.04 10.44Q37.04 11.52 37.39 12.18L37.39 12.18Q37.80 12.95 38.74 12.95L38.74 12.95Q39.54 12.95 39.96 12.19L39.96 12.19ZM46.62 12.96Q47.75 12.95 48.24 12.08L48.24 12.08Q48.31 11.96 48.40 11.96L48.40 11.96Q48.47 11.96 48.52 12.00L48.52 12.00L49.10 12.35Q49.21 12.42 49.21 12.53L49.21 12.53L49.18 12.64Q48.80 13.33 48.11 13.72Q47.42 14.11 46.49 14.11L46.49 14.11Q45.50 14.11 44.81 13.67Q44.13 13.23 43.78 12.40L43.78 12.40Q43.43 11.55 43.43 10.40L43.43 10.40Q43.43 9.38 43.58 8.85L43.58 8.85Q43.83 7.88 44.59 7.32Q45.35 6.76 46.42 6.76L46.42 6.76Q47.75 6.76 48.45 7.46Q49.15 8.15 49.36 9.46L49.36 9.46Q49.43 9.98 49.46 10.72L49.46 10.72Q49.46 10.93 49.25 10.93L49.25 10.93L44.83 10.93Q44.76 10.93 44.76 11.00L44.76 11.00Q44.79 11.54 44.86 11.76L44.86 11.76Q45.01 12.32 45.47 12.64Q45.93 12.96 46.62 12.96L46.62 12.96ZM46.42 7.92Q45.81 7.92 45.42 8.22Q45.04 8.51 44.90 9.03L44.90 9.03Q44.80 9.34 44.77 9.81L44.77 9.81Q44.77 9.88 44.84 9.88L44.84 9.88L48.02 9.88Q48.09 9.88 48.09 9.81L48.09 9.81Q48.06 9.35 48.01 9.13L48.01 9.13Q47.87 8.58 47.45 8.25Q47.04 7.92 46.42 7.92L46.42 7.92ZM54.33 6.78Q55.48 6.78 56.15 7.44Q56.83 8.11 56.83 9.24L56.83 9.24L56.83 13.79Q56.83 13.89 56.77 13.94Q56.71 14 56.62 14L56.62 14L55.69 14Q55.59 14 55.54 13.94Q55.48 13.89 55.48 13.79L55.48 13.79L55.48 9.51Q55.48 8.81 55.08 8.37Q54.67 7.94 54.00 7.94L54.00 7.94Q53.40 7.94 52.98 8.29Q52.57 8.65 52.50 9.25L52.50 9.25L52.50 13.79Q52.50 13.89 52.44 13.94Q52.39 14 52.29 14L52.29 14L51.37 14Q51.27 14 51.21 13.94Q51.16 13.89 51.16 13.79L51.16 13.79L51.16 7.08Q51.16 6.99 51.21 6.93Q51.27 6.87 51.37 6.87L51.37 6.87L52.29 6.87Q52.39 6.87 52.44 6.93Q52.50 6.99 52.50 7.08L52.50 7.08L52.50 7.48Q52.50 7.52 52.53 7.53Q52.56 7.55 52.57 7.52L52.57 7.52Q53.16 6.78 54.33 6.78L54.33 6.78Z"></path></g><defs data-v-423bf9ae=""><linearGradient data-v-423bf9ae="" gradientTransform="rotate(25)" id="da596603-2cae-4c00-b6c0-438c0de4af98" x1="0%" y1="0%" x2="100%" y2="0%"><stop data-v-423bf9ae="" offset="0%" style="stop-color: rgb(40, 139, 88); stop-opacity: 1;"></stop><stop data-v-423bf9ae="" offset="100%" style="stop-color: rgb(21, 34, 241); stop-opacity: 1;"></stop></linearGradient></defs><g data-v-423bf9ae="" id="13e5eec6-4c7f-41a7-8efb-a701406f3c54" transform="matrix(2.8125,0,0,2.8125,-12.426001459360123,0)" stroke="none" fill="url(#da596603-2cae-4c00-b6c0-438c0de4af98)"><path d="M27.377 11.377L16 0 4.623 11.377 16 22.753l11.377-11.376zM16 6.026l5.35 5.35L16 16.727l-5.35-5.35L16 6.026zM27.426 14.969l-5.664 5.664V32h5.664zM10.238 20.633l-5.664-5.664V32h5.664z"></path></g><!----><g data-v-423bf9ae="" id="5bdd46ab-e980-4785-8e6a-96ed4c3712a6" fill="#0C203C" transform="matrix(0.31277667224818184,0,0,0.31277667224818184,84.23998120362558,59.09294691545399)"><path d="M0.10 3.44C0.10 3.68 0.18 3.70 0.35 3.70L0.76 3.70C0.88 3.70 3.14 7.74 3.54 8.50C3.60 8.60 3.64 8.65 3.64 8.81C3.64 10.50 3.63 12.18 3.50 12.18L2.79 12.18C2.56 12.18 2.52 12.19 2.52 12.39C2.52 12.63 2.53 12.68 2.73 12.68C2.93 12.68 3.74 12.64 4.33 12.64C5.15 12.64 5.68 12.68 6.01 12.68C6.17 12.68 6.20 12.61 6.20 12.40C6.20 12.24 6.17 12.18 6.01 12.18L5.04 12.18C4.94 12.18 4.91 9.72 4.91 8.22C4.91 8.18 4.91 8.15 4.96 8.09C5.50 7.22 7.45 3.70 7.52 3.70L7.99 3.70C8.16 3.70 8.26 3.68 8.26 3.44C8.26 3.22 8.18 3.19 7.99 3.19C7.77 3.19 7.53 3.23 6.93 3.23C6.34 3.23 6.01 3.19 5.84 3.19C5.64 3.19 5.60 3.25 5.60 3.49C5.60 3.68 5.67 3.70 5.89 3.70L6.62 3.70C6.64 3.70 6.65 3.71 6.65 3.74C6.65 4.05 5.08 6.99 4.70 7.71C4.59 7.92 4.59 7.88 4.48 7.67C4.07 6.89 2.79 4.56 2.49 3.85C2.44 3.71 2.42 3.70 2.60 3.70L3.43 3.70C3.65 3.70 3.68 3.68 3.68 3.49C3.68 3.25 3.64 3.19 3.49 3.19C3.25 3.19 2.63 3.23 1.83 3.23C1.02 3.23 0.53 3.19 0.35 3.19C0.17 3.19 0.10 3.21 0.10 3.44ZM15.39 8.15C15.39 11.17 17.72 12.80 19.98 12.80C22.76 12.80 24.74 10.89 24.74 8.06C24.74 5.33 22.99 3.11 20.19 3.11C17.58 3.11 15.39 5.10 15.39 8.15ZM16.79 7.77C16.79 5.64 18.07 3.58 20.05 3.58C22.29 3.58 23.37 5.81 23.37 7.94C23.37 10.08 22.26 12.32 19.99 12.32C18.00 12.32 16.79 10.28 16.79 7.77ZM32.84 3.51C32.84 3.75 32.93 3.77 33.10 3.77L33.63 3.77C33.68 3.77 33.68 4.12 33.68 4.55C33.68 5.66 33.67 8.96 33.67 9.42C33.67 11.13 33.92 12.80 36.78 12.80C37.86 12.80 39.02 12.38 39.68 12.00C39.93 11.86 40.22 11.72 40.31 11.72C40.57 11.72 40.84 12.74 41.17 12.74C41.50 12.74 41.51 12.35 41.51 12.25C41.51 11.96 41.57 10.08 41.61 8.16C41.66 6.12 41.65 3.77 41.76 3.77L42.08 3.77C42.31 3.77 42.38 3.75 42.38 3.56C42.38 3.32 42.34 3.26 42.14 3.26C42 3.26 41.47 3.30 41.05 3.30C40.63 3.30 39.83 3.26 39.61 3.26C39.42 3.26 39.33 3.28 39.33 3.51C39.33 3.75 39.44 3.77 39.61 3.77L40.31 3.77C40.38 3.77 40.39 4.30 40.39 4.87L40.39 9.14C40.39 11.19 40.39 11.12 40.05 11.34C39.66 11.61 38.85 12.08 37.67 12.08C35.70 12.08 34.90 11.17 34.90 9.41C34.90 8.82 34.97 3.77 35.08 3.77L35.99 3.77C36.22 3.77 36.26 3.75 36.26 3.56C36.26 3.32 36.25 3.26 36.05 3.26C35.73 3.26 34.85 3.30 34.43 3.30C34.01 3.30 33.32 3.26 33.10 3.26C32.91 3.26 32.84 3.28 32.84 3.51ZM50.41 3.51C50.41 3.72 50.48 3.79 50.68 3.79L51.49 3.77C51.59 3.77 51.63 6.61 51.63 8.55L51.63 10.42C51.63 11.30 51.62 12.18 51.58 12.18L50.97 12.18C50.75 12.18 50.68 12.19 50.68 12.39C50.68 12.63 50.72 12.68 50.92 12.68C51.04 12.68 51.87 12.64 52.29 12.64C52.71 12.64 53.48 12.68 53.80 12.68C53.97 12.68 54.00 12.61 54.00 12.40C54.00 12.24 53.97 12.18 53.80 12.18L52.99 12.18C52.92 12.18 52.84 9.18 52.84 8.37C52.84 8.30 52.84 8.26 52.95 8.26C53.34 8.26 53.94 8.27 54.24 8.27C56.48 8.32 56.62 10.00 56.62 11.68L56.62 12.49C56.62 12.61 56.67 12.64 56.77 12.64C56.77 12.64 58.21 12.68 58.69 12.68C58.86 12.68 58.91 12.64 58.91 12.53C58.91 12.24 58.86 12.18 58.70 12.18L58.06 12.18C57.96 12.18 57.93 12.14 57.90 11.31C57.82 8.99 56.45 8.34 55.54 8.05C55.40 8.01 55.43 8.01 55.54 7.95C56.13 7.69 57.44 6.94 57.44 5.63C57.44 3.63 55.75 3.21 54.35 3.21C54.03 3.21 52.74 3.29 52.32 3.29C51.90 3.29 50.92 3.26 50.69 3.26C50.51 3.26 50.41 3.28 50.41 3.51ZM52.84 7.80L52.84 4.40C52.84 4.05 52.86 3.68 52.91 3.68C53.12 3.65 53.40 3.65 53.62 3.65C54.92 3.65 56.17 4.47 56.17 5.82C56.17 6.99 55.62 7.57 54.96 7.88C54.92 7.90 54.88 7.90 54.81 7.90C54.33 7.88 53.62 7.88 53.02 7.87C52.85 7.87 52.84 7.85 52.84 7.80ZM76.26 7.91C76.26 11.40 78.62 12.89 81.21 12.89C83.10 12.89 85.11 11.89 85.11 11.58C85.11 11.12 85.12 10.68 85.12 10.33C85.12 9.81 85.13 9.56 85.26 9.56L85.69 9.56C85.83 9.56 85.85 9.39 85.85 9.30C85.85 9.18 85.83 9.06 85.69 9.06C85.47 9.06 85.11 9.10 84.43 9.10C83.99 9.10 83.24 9.07 82.56 9.06C82.42 9.06 82.42 9.24 82.42 9.35C82.42 9.45 82.45 9.56 82.57 9.56L83.79 9.56C83.83 9.56 83.89 9.87 83.89 10.33C83.89 10.82 83.87 11.41 83.85 11.65C83.83 11.76 83.19 12.39 81.61 12.39C79.37 12.39 77.77 10.29 77.77 7.94C77.77 5.42 79.32 3.54 81.33 3.54C83.22 3.54 84.39 4.87 84.39 5.03C84.39 5.15 84.34 6.12 84.34 6.17C84.34 6.31 84.38 6.36 84.64 6.36C84.84 6.36 84.91 6.33 84.91 6.15C84.91 5.43 84.95 3.75 84.95 3.56C84.95 3.36 84.85 3.33 84.64 3.33C84.42 3.33 84.39 3.39 84.39 3.56L84.39 3.91C84.39 3.99 84.35 4.02 84.22 3.92C83.94 3.72 82.95 3.08 81.38 3.08C78.54 3.08 76.26 4.79 76.26 7.91ZM93.46 12.39C93.46 12.63 93.46 12.68 93.66 12.68C93.83 12.68 94.15 12.64 94.72 12.64C95.34 12.64 95.89 12.68 96.04 12.68C96.21 12.68 96.21 12.61 96.21 12.40C96.21 12.24 96.21 12.18 96.04 12.18L94.96 12.18C94.96 12.18 94.95 12.18 94.95 12.17C94.96 11.87 95.73 9.90 96.08 9.02C96.15 8.83 96.17 8.79 96.38 8.79L99.20 8.79C99.34 8.79 99.34 8.81 99.41 9.03C99.68 9.77 100.39 11.89 100.39 12.17C100.39 12.18 100.38 12.18 100.38 12.18L99.61 12.18C99.39 12.18 99.37 12.19 99.37 12.39C99.37 12.63 99.39 12.68 99.55 12.68C99.88 12.68 100.74 12.64 101.16 12.64C101.58 12.64 102.26 12.68 102.47 12.68C102.61 12.68 102.62 12.61 102.62 12.40C102.62 12.24 102.61 12.18 102.47 12.18L101.98 12.18C101.88 12.18 100.86 9.34 100.30 7.78L98.62 3.07C98.60 3.00 98.53 2.94 98.45 2.94C98.32 2.94 98.22 3.16 98.14 3.35C97.99 3.71 97.75 3.84 97.64 4.13L96.15 7.57C95.97 8.01 94.26 12.18 94.14 12.18L93.72 12.18C93.49 12.18 93.46 12.19 93.46 12.39ZM96.36 8.33C96.36 8.30 96.39 8.23 96.43 8.13L97.80 4.77C97.85 4.66 97.87 4.61 97.90 4.61C97.92 4.61 97.93 4.63 97.97 4.77L99.13 8.18C99.16 8.25 99.18 8.29 99.18 8.32C99.18 8.36 99.15 8.37 99.05 8.37L96.54 8.37C96.36 8.37 96.36 8.34 96.36 8.33ZM108.71 5.01C108.71 5.17 108.89 5.17 109.02 5.17C109.17 5.17 109.21 5.15 109.23 4.97L109.34 3.89C109.35 3.81 109.90 3.75 110.66 3.75L112.64 3.75C112.70 3.75 112.73 4.35 112.73 4.97C112.73 6.43 112.67 12.18 112.55 12.18L111.68 12.18C111.45 12.18 111.41 12.19 111.41 12.39C111.41 12.63 111.43 12.68 111.62 12.68C111.94 12.68 112.92 12.64 113.34 12.64C113.76 12.64 114.70 12.68 115.02 12.68C115.19 12.68 115.22 12.61 115.22 12.40C115.22 12.24 115.19 12.18 115.02 12.18L114.03 12.18C114.00 12.18 114.00 11.76 114.00 11.31C114.00 9.56 114.09 5.96 114.09 5.92C114.10 5.18 114.10 3.75 114.20 3.75L115.81 3.75C116.52 3.75 117.35 3.78 117.35 3.85C117.35 3.99 117.31 4.90 117.31 4.97C117.31 5.12 117.38 5.17 117.56 5.17C117.75 5.17 117.82 5.17 117.82 5.03C117.82 3.93 117.88 3.40 117.88 3.14C117.88 2.94 117.80 2.94 117.60 2.94C117.45 2.94 117.39 2.98 117.38 3.16C117.38 3.23 116.73 3.28 115.89 3.28L110.89 3.28C110.24 3.28 109.42 3.28 109.42 3.21L109.42 3.07C109.42 2.94 109.30 2.94 109.20 2.94C108.98 2.94 108.95 3.00 108.93 3.19C108.88 3.89 108.71 4.97 108.71 5.01ZM125.64 12.39C125.64 12.63 125.66 12.68 125.86 12.68C126.18 12.68 127.15 12.64 127.57 12.64C127.99 12.64 132.50 12.68 132.82 12.68C132.94 12.68 133.10 12.66 133.10 12.49C133.10 12.07 133.14 11.23 133.14 10.53C133.14 10.39 132.99 10.39 132.86 10.39C132.75 10.39 132.62 10.39 132.62 10.51C132.61 11.06 132.61 11.41 132.58 11.76C132.55 12.01 132.55 12.04 132.45 12.04C132.30 12.04 129.67 12.08 128.17 12.08C128.10 12.08 128.06 10.11 128.02 8.26C128.02 8.06 128.06 8.09 128.20 8.09L130.48 8.09C131.18 8.09 131.21 8.20 131.21 8.30L131.21 9.00C131.21 9.14 131.39 9.14 131.50 9.14C131.60 9.14 131.73 9.13 131.73 9.02C131.73 8.83 131.70 8.33 131.70 7.83C131.70 7.32 131.73 6.83 131.73 6.71C131.73 6.59 131.59 6.58 131.49 6.58C131.38 6.58 131.21 6.59 131.21 6.72L131.21 7.45C131.21 7.62 130.76 7.63 130.48 7.63L128.14 7.63C128.03 7.63 128.02 7.63 128.02 7.45C128.00 6.75 127.99 6.06 127.99 5.46C127.99 5.12 127.99 3.71 128.07 3.71C129.30 3.71 131.81 3.75 131.81 3.81C131.81 3.99 131.77 4.83 131.77 4.89C131.77 5.04 131.84 5.10 132.02 5.10C132.22 5.10 132.29 5.08 132.29 4.94C132.29 3.85 132.34 3.36 132.34 3.09C132.34 2.91 132.26 2.90 132.06 2.90C131.87 2.90 131.87 2.95 131.84 3.11C131.82 3.25 131.89 3.25 130.98 3.25C130.37 3.25 128.23 3.29 127.46 3.29C126.97 3.29 126.03 3.25 125.93 3.25C125.80 3.25 125.75 3.30 125.75 3.49C125.75 3.72 125.82 3.74 125.99 3.74L126.64 3.74C126.70 3.74 126.77 4.79 126.77 5.71C126.77 5.80 126.83 8.27 126.83 9.83L126.83 11.17C126.83 11.84 126.80 12.18 126.77 12.18L125.92 12.18C125.69 12.18 125.64 12.21 125.64 12.39ZM140.69 3.51C140.69 3.75 140.80 3.77 140.97 3.77L141.47 3.77C141.55 3.77 143.70 10.99 143.72 11.07C144.07 12.14 144.19 12.99 144.49 12.99C144.72 12.99 144.82 12.67 145.10 12.26C145.25 12.05 145.35 12.01 145.49 11.66L147.48 6.45C147.55 6.29 147.57 6.20 147.60 6.20C147.63 6.20 147.66 6.29 147.70 6.45C148.30 8.51 148.97 11.03 148.99 11.07C149.34 12.14 149.45 12.99 149.76 12.99C149.98 12.99 150.08 12.67 150.36 12.26C150.51 12.05 150.61 12.01 150.75 11.66L153.85 4.06C153.94 3.81 153.94 3.77 154.31 3.77C154.55 3.77 154.60 3.71 154.60 3.53C154.60 3.32 154.56 3.26 154.36 3.26C154.22 3.26 153.92 3.30 153.41 3.30C152.67 3.30 152.17 3.26 151.97 3.26C151.79 3.26 151.69 3.28 151.69 3.51C151.69 3.75 151.80 3.77 151.97 3.77L152.88 3.77C152.95 3.77 152.96 3.81 152.96 3.95C152.96 4.63 151.37 8.72 150.65 10.63C150.51 10.99 150.44 11.17 150.40 11.17C150.35 11.17 150.29 10.99 150.16 10.60C150.08 10.30 149.16 7.18 148.62 5.22C148.58 5.05 148.37 4.17 148.37 3.85C148.37 3.81 148.37 3.79 148.39 3.77L149.27 3.77C149.45 3.77 149.55 3.75 149.55 3.56C149.55 3.32 149.51 3.26 149.31 3.26C148.99 3.26 148.05 3.30 147.63 3.30C147.21 3.30 146.30 3.26 146.08 3.26C145.89 3.26 145.80 3.28 145.80 3.51C145.80 3.75 145.91 3.77 146.08 3.77L146.87 3.77C146.92 3.77 147.10 4.27 147.25 4.83C147.31 5.05 147.35 5.15 147.35 5.25C147.35 5.31 147.35 5.38 147.31 5.49L145.31 10.60C145.21 10.82 145.18 10.95 145.14 10.95C145.10 10.95 145.07 10.84 144.98 10.60C144.90 10.32 143.89 7.27 143.29 5.22C143.25 5.08 142.93 3.96 142.91 3.85C142.93 3.77 142.97 3.77 143.01 3.77L143.71 3.77C143.93 3.77 144.00 3.75 144.00 3.56C144.00 3.32 143.96 3.26 143.77 3.26C143.44 3.26 142.73 3.30 142.31 3.30C141.89 3.30 141.19 3.26 140.97 3.26C140.78 3.26 140.69 3.28 140.69 3.51ZM160.40 12.39C160.40 12.63 160.40 12.68 160.59 12.68C160.76 12.68 161.08 12.64 161.66 12.64C162.27 12.64 162.82 12.68 162.97 12.68C163.14 12.68 163.14 12.61 163.14 12.40C163.14 12.24 163.14 12.18 162.97 12.18L161.90 12.18C161.90 12.18 161.88 12.18 161.88 12.17C161.90 11.87 162.67 9.90 163.02 9.02C163.09 8.83 163.10 8.79 163.31 8.79L166.14 8.79C166.28 8.79 166.28 8.81 166.35 9.03C166.61 9.77 167.33 11.89 167.33 12.17C167.33 12.18 167.31 12.18 167.31 12.18L166.54 12.18C166.32 12.18 166.31 12.19 166.31 12.39C166.31 12.63 166.32 12.68 166.49 12.68C166.81 12.68 167.68 12.64 168.10 12.64C168.52 12.64 169.19 12.68 169.40 12.68C169.54 12.68 169.55 12.61 169.55 12.40C169.55 12.24 169.54 12.18 169.40 12.18L168.91 12.18C168.81 12.18 167.79 9.34 167.23 7.78L165.55 3.07C165.54 3.00 165.47 2.94 165.38 2.94C165.26 2.94 165.16 3.16 165.07 3.35C164.92 3.71 164.68 3.84 164.57 4.13L163.09 7.57C162.90 8.01 161.20 12.18 161.07 12.18L160.65 12.18C160.43 12.18 160.40 12.19 160.40 12.39ZM163.30 8.33C163.30 8.30 163.32 8.23 163.37 8.13L164.74 4.77C164.78 4.66 164.81 4.61 164.84 4.61C164.85 4.61 164.86 4.63 164.91 4.77L166.07 8.18C166.10 8.25 166.11 8.29 166.11 8.32C166.11 8.36 166.08 8.37 165.98 8.37L163.48 8.37C163.30 8.37 163.30 8.34 163.30 8.33ZM176.05 3.44C176.05 3.68 176.13 3.70 176.30 3.70L176.71 3.70C176.83 3.70 179.09 7.74 179.49 8.50C179.55 8.60 179.59 8.65 179.59 8.81C179.59 10.50 179.58 12.18 179.45 12.18L178.74 12.18C178.51 12.18 178.47 12.19 178.47 12.39C178.47 12.63 178.49 12.68 178.68 12.68C178.88 12.68 179.69 12.64 180.28 12.64C181.10 12.64 181.64 12.68 181.96 12.68C182.13 12.68 182.15 12.61 182.15 12.40C182.15 12.24 182.13 12.18 181.96 12.18L180.99 12.18C180.89 12.18 180.87 9.72 180.87 8.22C180.87 8.18 180.87 8.15 180.91 8.09C181.45 7.22 183.40 3.70 183.47 3.70L183.95 3.70C184.11 3.70 184.21 3.68 184.21 3.44C184.21 3.22 184.13 3.19 183.95 3.19C183.72 3.19 183.48 3.23 182.88 3.23C182.29 3.23 181.96 3.19 181.79 3.19C181.59 3.19 181.55 3.25 181.55 3.49C181.55 3.68 181.62 3.70 181.85 3.70L182.57 3.70C182.59 3.70 182.60 3.71 182.60 3.74C182.60 4.05 181.03 6.99 180.66 7.71C180.54 7.92 180.54 7.88 180.43 7.67C180.03 6.89 178.74 4.56 178.44 3.85C178.39 3.71 178.37 3.70 178.56 3.70L179.38 3.70C179.61 3.70 179.63 3.68 179.63 3.49C179.63 3.25 179.59 3.19 179.44 3.19C179.20 3.19 178.58 3.23 177.79 3.23C176.97 3.23 176.48 3.19 176.30 3.19C176.12 3.19 176.05 3.21 176.05 3.44ZM201.36 5.01C201.36 5.17 201.54 5.17 201.67 5.17C201.82 5.17 201.87 5.15 201.88 4.97L201.99 3.89C202.01 3.81 202.55 3.75 203.31 3.75L205.30 3.75C205.35 3.75 205.38 4.35 205.38 4.97C205.38 6.43 205.32 12.18 205.20 12.18L204.33 12.18C204.11 12.18 204.06 12.19 204.06 12.39C204.06 12.63 204.08 12.68 204.27 12.68C204.60 12.68 205.58 12.64 206.00 12.64C206.42 12.64 207.35 12.68 207.68 12.68C207.84 12.68 207.87 12.61 207.87 12.40C207.87 12.24 207.84 12.18 207.68 12.18L206.68 12.18C206.65 12.18 206.65 11.76 206.65 11.31C206.65 9.56 206.74 5.96 206.74 5.92C206.75 5.18 206.75 3.75 206.85 3.75L208.46 3.75C209.17 3.75 210 3.78 210 3.85C210 3.99 209.96 4.90 209.96 4.97C209.96 5.12 210.03 5.17 210.21 5.17C210.41 5.17 210.48 5.17 210.48 5.03C210.48 3.93 210.53 3.40 210.53 3.14C210.53 2.94 210.45 2.94 210.25 2.94C210.10 2.94 210.04 2.98 210.03 3.16C210.03 3.23 209.38 3.28 208.54 3.28L203.55 3.28C202.89 3.28 202.08 3.28 202.08 3.21L202.08 3.07C202.08 2.94 201.95 2.94 201.85 2.94C201.63 2.94 201.60 3.00 201.59 3.19C201.53 3.89 201.36 4.97 201.36 5.01ZM217.80 8.15C217.80 11.17 220.14 12.80 222.39 12.80C225.18 12.80 227.15 10.89 227.15 8.06C227.15 5.33 225.40 3.11 222.60 3.11C220.00 3.11 217.80 5.10 217.80 8.15ZM219.20 7.77C219.20 5.64 220.49 3.58 222.46 3.58C224.70 3.58 225.78 5.81 225.78 7.94C225.78 10.08 224.67 12.32 222.40 12.32C220.42 12.32 219.20 10.28 219.20 7.77ZM244.92 12.39C244.92 12.63 244.96 12.68 245.15 12.68C245.48 12.68 246.23 12.64 246.95 12.64C247.60 12.64 248.40 12.68 248.63 12.68C248.79 12.68 248.82 12.61 248.82 12.40C248.82 12.24 248.79 12.18 248.63 12.18L247.66 12.18C247.56 12.18 247.53 9.55 247.53 7.76L247.53 5.87C247.53 5.14 247.56 3.70 247.66 3.70L248.57 3.70C248.79 3.70 248.82 3.68 248.82 3.49C248.82 3.25 248.79 3.19 248.63 3.19C248.30 3.19 247.63 3.23 246.97 3.23C246.16 3.23 245.45 3.19 245.22 3.19C245.04 3.19 244.97 3.21 244.97 3.44C244.97 3.68 245.06 3.70 245.22 3.70L246.15 3.70C246.19 3.70 246.26 4.79 246.26 5.71L246.26 7.08C246.26 8.92 246.25 12.18 246.13 12.18L245.21 12.18C244.99 12.18 244.92 12.19 244.92 12.39ZM256.72 3.51C256.72 3.72 256.79 3.79 256.98 3.79L257.80 3.77C257.89 3.77 257.94 6.61 257.94 8.55L257.94 10.42C257.94 11.30 257.92 12.18 257.88 12.18L257.28 12.18C257.05 12.18 256.98 12.19 256.98 12.39C256.98 12.63 257.03 12.68 257.22 12.68C257.35 12.68 258.17 12.64 258.59 12.64C259.01 12.64 259.78 12.68 260.11 12.68C260.27 12.68 260.30 12.61 260.30 12.40C260.30 12.24 260.27 12.18 260.11 12.18L259.29 12.18C259.22 12.18 259.14 9.18 259.14 8.37C259.14 8.30 259.14 8.26 259.25 8.26C259.64 8.26 260.25 8.27 260.54 8.27C262.78 8.32 262.92 10.00 262.92 11.68L262.92 12.49C262.92 12.61 262.98 12.64 263.07 12.64C263.07 12.64 264.52 12.68 264.99 12.68C265.16 12.68 265.22 12.64 265.22 12.53C265.22 12.24 265.16 12.18 265.01 12.18L264.36 12.18C264.26 12.18 264.24 12.14 264.21 11.31C264.12 8.99 262.75 8.34 261.84 8.05C261.70 8.01 261.73 8.01 261.84 7.95C262.43 7.69 263.75 6.94 263.75 5.63C263.75 3.63 262.05 3.21 260.65 3.21C260.33 3.21 259.04 3.29 258.62 3.29C258.20 3.29 257.22 3.26 257.00 3.26C256.82 3.26 256.72 3.28 256.72 3.51ZM259.14 7.80L259.14 4.40C259.14 4.05 259.17 3.68 259.21 3.68C259.42 3.65 259.70 3.65 259.92 3.65C261.23 3.65 262.47 4.47 262.47 5.82C262.47 6.99 261.93 7.57 261.27 7.88C261.23 7.90 261.18 7.90 261.11 7.90C260.64 7.88 259.92 7.88 259.32 7.87C259.15 7.87 259.14 7.85 259.14 7.80ZM272.55 12.39C272.55 12.63 272.55 12.68 272.75 12.68C272.92 12.68 273.24 12.64 273.81 12.64C274.43 12.64 274.97 12.68 275.13 12.68C275.30 12.68 275.30 12.61 275.30 12.40C275.30 12.24 275.30 12.18 275.13 12.18L274.05 12.18C274.05 12.18 274.04 12.18 274.04 12.17C274.05 11.87 274.82 9.90 275.17 9.02C275.24 8.83 275.25 8.79 275.46 8.79L278.29 8.79C278.43 8.79 278.43 8.81 278.50 9.03C278.77 9.77 279.48 11.89 279.48 12.17C279.48 12.18 279.47 12.18 279.47 12.18L278.70 12.18C278.47 12.18 278.46 12.19 278.46 12.39C278.46 12.63 278.47 12.68 278.64 12.68C278.96 12.68 279.83 12.64 280.25 12.64C280.67 12.64 281.34 12.68 281.55 12.68C281.69 12.68 281.71 12.61 281.71 12.40C281.71 12.24 281.69 12.18 281.55 12.18L281.06 12.18C280.97 12.18 279.94 9.34 279.38 7.78L277.70 3.07C277.69 3.00 277.62 2.94 277.54 2.94C277.41 2.94 277.31 3.16 277.23 3.35C277.07 3.71 276.84 3.84 276.72 4.13L275.24 7.57C275.06 8.01 273.35 12.18 273.22 12.18L272.80 12.18C272.58 12.18 272.55 12.19 272.55 12.39ZM275.45 8.33C275.45 8.30 275.48 8.23 275.52 8.13L276.89 4.77C276.93 4.66 276.96 4.61 276.99 4.61C277.00 4.61 277.02 4.63 277.06 4.77L278.22 8.18C278.25 8.25 278.26 8.29 278.26 8.32C278.26 8.36 278.24 8.37 278.14 8.37L275.63 8.37C275.45 8.37 275.45 8.34 275.45 8.33ZM289.46 12.39C289.46 12.63 289.48 12.68 289.67 12.68C289.86 12.68 290.23 12.64 290.85 12.64C291.48 12.64 292.04 12.68 292.36 12.68C292.53 12.68 292.53 12.61 292.53 12.40C292.53 12.24 292.53 12.18 292.36 12.18L291.16 12.18C291.12 12.18 291.10 11.54 291.10 10.79C291.10 9.46 291.12 7.48 291.12 5.99C291.12 5.25 291.12 4.84 291.13 4.28C291.13 4.02 291.20 4.14 291.33 4.28L298.21 12.66C298.30 12.75 298.38 12.89 298.49 12.89C298.61 12.89 298.68 12.77 298.68 12.54C298.68 12.39 298.84 6.65 298.86 4.48C298.86 4.06 298.89 3.70 298.91 3.70L299.54 3.70C299.77 3.70 299.82 3.68 299.82 3.49C299.82 3.25 299.82 3.19 299.63 3.19C299.43 3.19 299.00 3.23 298.44 3.23C297.82 3.23 297.02 3.19 296.93 3.19C296.76 3.19 296.76 3.26 296.76 3.47C296.76 3.64 296.76 3.70 296.93 3.70L298.23 3.70C298.24 3.70 298.24 4.33 298.24 4.44C298.24 5.85 298.27 8.33 298.27 9.70L298.27 10.29C298.27 10.57 298.26 10.65 298.03 10.37L292.35 3.39C292.24 3.25 292.21 3.19 292.04 3.19C291.96 3.19 291.58 3.23 291.27 3.23C290.98 3.23 289.90 3.19 289.70 3.19C289.53 3.19 289.51 3.26 289.51 3.47C289.51 3.64 289.53 3.70 289.70 3.70L290.61 3.70C290.61 4.17 290.57 8.53 290.50 10.79C290.47 11.69 290.49 12.18 290.37 12.18L289.73 12.18C289.51 12.18 289.46 12.19 289.46 12.39ZM308.14 12.07C308.14 12.31 308.59 12.75 309.01 12.75C309.19 12.75 309.64 12.35 309.64 11.90C309.64 11.51 309.06 11.20 308.80 11.20C308.53 11.20 308.14 11.76 308.14 12.07ZM308.14 8.22C308.14 8.46 308.59 8.90 309.01 8.90C309.19 8.90 309.64 8.50 309.64 8.05C309.64 7.66 309.06 7.35 308.80 7.35C308.53 7.35 308.14 7.91 308.14 8.22ZM327.96 5.77C327.96 9.07 332.95 8.20 332.95 10.65C332.95 11.59 332.11 12.31 331.13 12.31C330.30 12.31 328.71 11.83 328.68 11.47L328.59 10.15C328.58 9.97 328.51 9.91 328.33 9.91L328.26 9.91C328.05 9.91 328.05 10.00 328.05 10.12C328.05 10.32 328.16 11.66 328.19 12.17C328.20 12.38 329.46 12.85 331.00 12.85C332.57 12.85 334.18 11.87 334.18 10.11C334.18 6.79 329.21 7.87 329.21 5.32C329.21 4.31 329.99 3.56 331.03 3.56C332.05 3.56 333.14 4.58 333.14 4.89C333.14 5.01 333.10 5.73 333.10 5.78C333.10 5.92 333.14 5.99 333.41 5.99C333.65 5.99 333.66 5.94 333.66 5.75C333.66 5.04 333.75 3.68 333.75 3.53C333.75 3.30 333.70 3.29 333.44 3.29C333.21 3.29 333.20 3.32 333.19 3.53C333.19 3.61 333.17 3.78 333.13 3.78C333.07 3.78 332.99 3.74 332.92 3.68C332.12 3.14 331.51 3.08 331.00 3.08C329.48 3.08 327.96 4.17 327.96 5.77ZM342.15 12.39C342.15 12.63 342.17 12.68 342.37 12.68C342.69 12.68 343.66 12.64 344.08 12.64C344.50 12.64 349.01 12.68 349.33 12.68C349.45 12.68 349.61 12.66 349.61 12.49C349.61 12.07 349.65 11.23 349.65 10.53C349.65 10.39 349.50 10.39 349.37 10.39C349.26 10.39 349.13 10.39 349.13 10.51C349.12 11.06 349.12 11.41 349.09 11.76C349.06 12.01 349.06 12.04 348.96 12.04C348.81 12.04 346.18 12.08 344.68 12.08C344.61 12.08 344.57 10.11 344.53 8.26C344.53 8.06 344.57 8.09 344.71 8.09L346.99 8.09C347.69 8.09 347.72 8.20 347.72 8.30L347.72 9.00C347.72 9.14 347.90 9.14 348.01 9.14C348.11 9.14 348.24 9.13 348.24 9.02C348.24 8.83 348.21 8.33 348.21 7.83C348.21 7.32 348.24 6.83 348.24 6.71C348.24 6.59 348.10 6.58 348.00 6.58C347.89 6.58 347.72 6.59 347.72 6.72L347.72 7.45C347.72 7.62 347.27 7.63 346.99 7.63L344.65 7.63C344.54 7.63 344.53 7.63 344.53 7.45C344.51 6.75 344.50 6.06 344.50 5.46C344.50 5.12 344.50 3.71 344.58 3.71C345.81 3.71 348.32 3.75 348.32 3.81C348.32 3.99 348.28 4.83 348.28 4.89C348.28 5.04 348.35 5.10 348.53 5.10C348.73 5.10 348.80 5.08 348.80 4.94C348.80 3.85 348.85 3.36 348.85 3.09C348.85 2.91 348.77 2.90 348.57 2.90C348.38 2.90 348.38 2.95 348.35 3.11C348.33 3.25 348.40 3.25 347.49 3.25C346.88 3.25 344.74 3.29 343.97 3.29C343.48 3.29 342.54 3.25 342.44 3.25C342.31 3.25 342.26 3.30 342.26 3.49C342.26 3.72 342.33 3.74 342.50 3.74L343.15 3.74C343.21 3.74 343.28 4.79 343.28 5.71C343.28 5.80 343.34 8.27 343.34 9.83L343.34 11.17C343.34 11.84 343.31 12.18 343.28 12.18L342.43 12.18C342.20 12.18 342.15 12.21 342.15 12.39ZM357.48 12.39C357.48 12.63 357.48 12.68 357.67 12.68C357.84 12.68 358.16 12.64 358.74 12.64C359.35 12.64 359.90 12.68 360.05 12.68C360.22 12.68 360.22 12.61 360.22 12.40C360.22 12.24 360.22 12.18 360.05 12.18L358.97 12.18C358.97 12.18 358.96 12.18 358.96 12.17C358.97 11.87 359.74 9.90 360.09 9.02C360.16 8.83 360.18 8.79 360.39 8.79L363.22 8.79C363.36 8.79 363.36 8.81 363.43 9.03C363.69 9.77 364.41 11.89 364.41 12.17C364.41 12.18 364.39 12.18 364.39 12.18L363.62 12.18C363.40 12.18 363.38 12.19 363.38 12.39C363.38 12.63 363.40 12.68 363.57 12.68C363.89 12.68 364.76 12.64 365.18 12.64C365.60 12.64 366.27 12.68 366.48 12.68C366.62 12.68 366.63 12.61 366.63 12.40C366.63 12.24 366.62 12.18 366.48 12.18L365.99 12.18C365.89 12.18 364.87 9.34 364.31 7.78L362.63 3.07C362.61 3.00 362.54 2.94 362.46 2.94C362.33 2.94 362.24 3.16 362.15 3.35C362.00 3.71 361.76 3.84 361.65 4.13L360.16 7.57C359.98 8.01 358.27 12.18 358.15 12.18L357.73 12.18C357.50 12.18 357.48 12.19 357.48 12.39ZM360.37 8.33C360.37 8.30 360.40 8.23 360.44 8.13L361.82 4.77C361.86 4.66 361.89 4.61 361.91 4.61C361.93 4.61 361.94 4.63 361.98 4.77L363.15 8.18C363.17 8.25 363.19 8.29 363.19 8.32C363.19 8.36 363.16 8.37 363.06 8.37L360.56 8.37C360.37 8.37 360.37 8.34 360.37 8.33ZM374.32 12.39C374.32 12.63 374.35 12.68 374.54 12.68C374.78 12.68 375.28 12.64 375.70 12.64C376.12 12.64 376.61 12.68 376.94 12.68C377.10 12.68 377.13 12.61 377.13 12.40C377.13 12.24 377.10 12.18 376.94 12.18L375.97 12.18C375.91 12.18 375.90 11.54 375.90 10.79C375.90 8.96 375.94 6.13 376.01 4.28C376.04 3.88 376.07 3.91 376.21 4.27L379.47 12.32C379.57 12.54 379.64 12.74 379.75 12.74C379.85 12.74 379.92 12.63 380.00 12.45C380.34 11.79 380.52 11.75 380.79 11.09L383.38 4.47C383.50 4.16 383.54 4.02 383.56 4.47C383.59 5.66 383.63 8.47 383.63 9.74C383.63 10.99 383.59 12.18 383.53 12.18L382.90 12.18C382.68 12.18 382.61 12.19 382.61 12.39C382.61 12.63 382.63 12.68 382.83 12.68C383.03 12.68 383.73 12.64 384.33 12.64C384.75 12.64 385.50 12.68 385.83 12.68C385.99 12.68 386.02 12.61 386.02 12.40C386.02 12.22 385.97 12.18 385.80 12.18L385.07 12.18C384.96 12.18 384.86 8.44 384.86 6.03L384.86 4.77C384.86 4.17 384.89 3.77 384.93 3.70L385.59 3.70C385.81 3.70 385.85 3.68 385.85 3.49C385.85 3.25 385.84 3.19 385.64 3.19C385.32 3.19 384.64 3.23 384.22 3.23L383.54 3.23C383.32 3.23 383.29 3.29 383.18 3.58L380.44 10.72C380.35 10.95 380.32 11.02 380.21 10.74L377.27 3.40C377.20 3.22 377.15 3.19 377.01 3.19C376.92 3.19 376.43 3.23 376.12 3.23C375.62 3.23 374.77 3.19 374.57 3.19C374.43 3.19 374.43 3.26 374.43 3.47C374.43 3.64 374.43 3.70 374.57 3.70L375.27 3.70C375.54 3.70 375.54 3.72 375.54 3.84C375.54 4.82 375.33 9.94 375.28 10.79C375.24 11.55 375.24 12.18 375.19 12.18L374.61 12.18C374.39 12.18 374.32 12.19 374.32 12.39ZM393.92 12.39C393.92 12.63 393.95 12.68 394.14 12.68C394.46 12.68 395.43 12.64 395.85 12.64C396.27 12.64 400.62 12.68 400.95 12.68C401.21 12.68 401.28 12.66 401.30 12.49C401.35 12.08 401.59 10.72 401.59 10.60C401.59 10.47 401.44 10.44 401.27 10.43C401.17 10.42 401.09 10.46 401.07 10.56L400.90 11.76C400.86 12.05 400.85 12.03 400.62 12.04C400.47 12.05 397.96 12.12 396.54 12.12C396.49 12.12 396.45 11.38 396.45 10.54L396.45 6.66C396.45 5.40 396.47 3.70 396.56 3.70L397.54 3.70C397.78 3.70 397.81 3.63 397.81 3.44C397.81 3.23 397.80 3.19 397.56 3.19C397.24 3.19 396.30 3.23 395.88 3.23C395.46 3.23 394.52 3.19 394.30 3.19C394.07 3.19 394.02 3.22 394.02 3.44C394.02 3.65 394.06 3.70 394.25 3.70L395.08 3.70C395.12 3.70 395.15 4.23 395.15 4.90L395.15 8.13C395.15 10.07 395.12 12.18 395.04 12.18L394.20 12.18C393.97 12.18 393.92 12.21 393.92 12.39ZM409.21 12.39C409.21 12.63 409.23 12.68 409.43 12.68C409.75 12.68 410.72 12.64 411.14 12.64C411.56 12.64 416.07 12.68 416.39 12.68C416.51 12.68 416.67 12.66 416.67 12.49C416.67 12.07 416.71 11.23 416.71 10.53C416.71 10.39 416.56 10.39 416.43 10.39C416.32 10.39 416.19 10.39 416.19 10.51C416.18 11.06 416.18 11.41 416.15 11.76C416.12 12.01 416.12 12.04 416.02 12.04C415.87 12.04 413.24 12.08 411.74 12.08C411.67 12.08 411.63 10.11 411.59 8.26C411.59 8.06 411.63 8.09 411.77 8.09L414.05 8.09C414.75 8.09 414.78 8.20 414.78 8.30L414.78 9.00C414.78 9.14 414.96 9.14 415.07 9.14C415.17 9.14 415.30 9.13 415.30 9.02C415.30 8.83 415.27 8.33 415.27 7.83C415.27 7.32 415.30 6.83 415.30 6.71C415.30 6.59 415.16 6.58 415.06 6.58C414.95 6.58 414.78 6.59 414.78 6.72L414.78 7.45C414.78 7.62 414.33 7.63 414.05 7.63L411.71 7.63C411.60 7.63 411.59 7.63 411.59 7.45C411.57 6.75 411.56 6.06 411.56 5.46C411.56 5.12 411.56 3.71 411.64 3.71C412.87 3.71 415.38 3.75 415.38 3.81C415.38 3.99 415.34 4.83 415.34 4.89C415.34 5.04 415.41 5.10 415.59 5.10C415.79 5.10 415.86 5.08 415.86 4.94C415.86 3.85 415.91 3.36 415.91 3.09C415.91 2.91 415.83 2.90 415.63 2.90C415.44 2.90 415.44 2.95 415.41 3.11C415.39 3.25 415.46 3.25 414.55 3.25C413.94 3.25 411.80 3.29 411.03 3.29C410.54 3.29 409.60 3.25 409.50 3.25C409.37 3.25 409.32 3.30 409.32 3.49C409.32 3.72 409.39 3.74 409.56 3.74L410.21 3.74C410.27 3.74 410.34 4.79 410.34 5.71C410.34 5.80 410.40 8.27 410.40 9.83L410.40 11.17C410.40 11.84 410.37 12.18 410.34 12.18L409.49 12.18C409.26 12.18 409.21 12.21 409.21 12.39ZM424.89 5.77C424.89 9.07 429.87 8.20 429.87 10.65C429.87 11.59 429.03 12.31 428.05 12.31C427.22 12.31 425.63 11.83 425.60 11.47L425.52 10.15C425.50 9.97 425.43 9.91 425.25 9.91L425.18 9.91C424.97 9.91 424.97 10.00 424.97 10.12C424.97 10.32 425.08 11.66 425.11 12.17C425.12 12.38 426.38 12.85 427.92 12.85C429.49 12.85 431.10 11.87 431.10 10.11C431.10 6.79 426.13 7.87 426.13 5.32C426.13 4.31 426.92 3.56 427.95 3.56C428.97 3.56 430.07 4.58 430.07 4.89C430.07 5.01 430.02 5.73 430.02 5.78C430.02 5.92 430.07 5.99 430.33 5.99C430.57 5.99 430.58 5.94 430.58 5.75C430.58 5.04 430.67 3.68 430.67 3.53C430.67 3.30 430.63 3.29 430.36 3.29C430.14 3.29 430.12 3.32 430.11 3.53C430.11 3.61 430.09 3.78 430.05 3.78C430.00 3.78 429.91 3.74 429.84 3.68C429.04 3.14 428.43 3.08 427.92 3.08C426.40 3.08 424.89 4.17 424.89 5.77ZM439.28 5.77C439.28 9.07 444.26 8.20 444.26 10.65C444.26 11.59 443.42 12.31 442.44 12.31C441.62 12.31 440.02 11.83 439.99 11.47L439.91 10.15C439.89 9.97 439.82 9.91 439.64 9.91L439.57 9.91C439.36 9.91 439.36 10.00 439.36 10.12C439.36 10.32 439.47 11.66 439.50 12.17C439.52 12.38 440.78 12.85 442.32 12.85C443.88 12.85 445.49 11.87 445.49 10.11C445.49 6.79 440.52 7.87 440.52 5.32C440.52 4.31 441.31 3.56 442.34 3.56C443.37 3.56 444.46 4.58 444.46 4.89C444.46 5.01 444.42 5.73 444.42 5.78C444.42 5.92 444.46 5.99 444.72 5.99C444.96 5.99 444.98 5.94 444.98 5.75C444.98 5.04 445.06 3.68 445.06 3.53C445.06 3.30 445.02 3.29 444.75 3.29C444.53 3.29 444.51 3.32 444.50 3.53C444.50 3.61 444.49 3.78 444.44 3.78C444.39 3.78 444.30 3.74 444.23 3.68C443.44 3.14 442.82 3.08 442.32 3.08C440.79 3.08 439.28 4.17 439.28 5.77ZM463.47 5.77C463.47 9.07 468.45 8.20 468.45 10.65C468.45 11.59 467.61 12.31 466.63 12.31C465.81 12.31 464.21 11.83 464.18 11.47L464.10 10.15C464.09 9.97 464.02 9.91 463.83 9.91L463.76 9.91C463.55 9.91 463.55 10.00 463.55 10.12C463.55 10.32 463.67 11.66 463.69 12.17C463.71 12.38 464.97 12.85 466.51 12.85C468.08 12.85 469.69 11.87 469.69 10.11C469.69 6.79 464.72 7.87 464.72 5.32C464.72 4.31 465.50 3.56 466.54 3.56C467.56 3.56 468.65 4.58 468.65 4.89C468.65 5.01 468.61 5.73 468.61 5.78C468.61 5.92 468.65 5.99 468.92 5.99C469.15 5.99 469.17 5.94 469.17 5.75C469.17 5.04 469.25 3.68 469.25 3.53C469.25 3.30 469.21 3.29 468.94 3.29C468.72 3.29 468.71 3.32 468.69 3.53C468.69 3.61 468.68 3.78 468.64 3.78C468.58 3.78 468.50 3.74 468.43 3.68C467.63 3.14 467.01 3.08 466.51 3.08C464.98 3.08 463.47 4.17 463.47 5.77ZM477.65 12.39C477.65 12.63 477.68 12.68 477.88 12.68C478.20 12.68 479.16 12.64 479.58 12.64C480.00 12.64 484.51 12.68 484.83 12.68C484.96 12.68 485.11 12.66 485.11 12.49C485.11 12.07 485.16 11.23 485.16 10.53C485.16 10.39 485.00 10.39 484.88 10.39C484.76 10.39 484.64 10.39 484.64 10.51C484.62 11.06 484.62 11.41 484.60 11.76C484.57 12.01 484.57 12.04 484.47 12.04C484.32 12.04 481.68 12.08 480.19 12.08C480.12 12.08 480.07 10.11 480.03 8.26C480.03 8.06 480.07 8.09 480.21 8.09L482.50 8.09C483.20 8.09 483.22 8.20 483.22 8.30L483.22 9.00C483.22 9.14 483.41 9.14 483.52 9.14C483.62 9.14 483.74 9.13 483.74 9.02C483.74 8.83 483.71 8.33 483.71 7.83C483.71 7.32 483.74 6.83 483.74 6.71C483.74 6.59 483.60 6.58 483.50 6.58C483.39 6.58 483.22 6.59 483.22 6.72L483.22 7.45C483.22 7.62 482.78 7.63 482.50 7.63L480.16 7.63C480.05 7.63 480.03 7.63 480.03 7.45C480.02 6.75 480.00 6.06 480.00 5.46C480.00 5.12 480.00 3.71 480.09 3.71C481.32 3.71 483.83 3.75 483.83 3.81C483.83 3.99 483.78 4.83 483.78 4.89C483.78 5.04 483.85 5.10 484.04 5.10C484.23 5.10 484.30 5.08 484.30 4.94C484.30 3.85 484.36 3.36 484.36 3.09C484.36 2.91 484.27 2.90 484.08 2.90C483.88 2.90 483.88 2.95 483.85 3.11C483.84 3.25 483.91 3.25 483 3.25C482.38 3.25 480.24 3.29 479.47 3.29C478.98 3.29 478.04 3.25 477.95 3.25C477.82 3.25 477.76 3.30 477.76 3.49C477.76 3.72 477.83 3.74 478.00 3.74L478.66 3.74C478.72 3.74 478.79 4.79 478.79 5.71C478.79 5.80 478.84 8.27 478.84 9.83L478.84 11.17C478.84 11.84 478.81 12.18 478.79 12.18L477.93 12.18C477.71 12.18 477.65 12.21 477.65 12.39ZM493.12 3.51C493.12 3.72 493.19 3.79 493.39 3.79L494.20 3.77C494.30 3.77 494.34 6.61 494.34 8.55L494.34 10.42C494.34 11.30 494.33 12.18 494.28 12.18L493.68 12.18C493.46 12.18 493.39 12.19 493.39 12.39C493.39 12.63 493.43 12.68 493.63 12.68C493.75 12.68 494.58 12.64 495.00 12.64C495.42 12.64 496.19 12.68 496.51 12.68C496.68 12.68 496.71 12.61 496.71 12.40C496.71 12.24 496.68 12.18 496.51 12.18L495.70 12.18C495.63 12.18 495.54 9.18 495.54 8.37C495.54 8.30 495.54 8.26 495.66 8.26C496.05 8.26 496.65 8.27 496.94 8.27C499.18 8.32 499.32 10.00 499.32 11.68L499.32 12.49C499.32 12.61 499.38 12.64 499.48 12.64C499.48 12.64 500.92 12.68 501.40 12.68C501.56 12.68 501.62 12.64 501.62 12.53C501.62 12.24 501.56 12.18 501.41 12.18L500.77 12.18C500.67 12.18 500.64 12.14 500.61 11.31C500.53 8.99 499.16 8.34 498.25 8.05C498.11 8.01 498.13 8.01 498.25 7.95C498.83 7.69 500.15 6.94 500.15 5.63C500.15 3.63 498.46 3.21 497.06 3.21C496.73 3.21 495.45 3.29 495.03 3.29C494.61 3.29 493.63 3.26 493.40 3.26C493.22 3.26 493.12 3.28 493.12 3.51ZM495.54 7.80L495.54 4.40C495.54 4.05 495.57 3.68 495.61 3.68C495.82 3.65 496.10 3.65 496.33 3.65C497.63 3.65 498.88 4.47 498.88 5.82C498.88 6.99 498.33 7.57 497.67 7.88C497.63 7.90 497.59 7.90 497.52 7.90C497.04 7.88 496.33 7.88 495.73 7.87C495.56 7.87 495.54 7.85 495.54 7.80ZM507.98 3.51C507.98 3.75 508.07 3.77 508.24 3.77L508.68 3.77C508.76 3.77 511.55 10.99 511.59 11.07C512.08 12.18 512.18 12.99 512.39 12.99C512.65 12.99 512.71 12.67 512.99 12.26C513.14 12.04 513.23 12.01 513.38 11.66L516.61 4.06C516.73 3.81 516.71 3.77 517.08 3.77C517.30 3.77 517.37 3.75 517.37 3.56C517.37 3.32 517.33 3.26 517.13 3.26C516.99 3.26 516.46 3.30 516.04 3.30C515.62 3.30 514.79 3.26 514.57 3.26C514.37 3.26 514.32 3.29 514.32 3.51C514.32 3.75 514.44 3.77 514.61 3.77L515.61 3.77C515.68 3.77 515.69 3.81 515.69 3.95C515.69 4.63 514.01 8.72 513.28 10.63C513.14 10.99 513.06 11.17 513.02 11.17C512.97 11.17 512.88 10.98 512.74 10.60C512.16 9.10 511.03 6.01 510.51 4.49C510.43 4.27 510.34 3.93 510.34 3.79L510.34 3.77L511.32 3.77C511.55 3.77 511.62 3.75 511.62 3.56C511.62 3.32 511.57 3.26 511.38 3.26C511.06 3.26 509.98 3.30 509.56 3.30C509.14 3.30 508.42 3.26 508.24 3.26C508.06 3.26 507.98 3.28 507.98 3.51ZM524.85 12.39C524.85 12.63 524.89 12.68 525.08 12.68C525.41 12.68 526.16 12.64 526.88 12.64C527.53 12.64 528.33 12.68 528.56 12.68C528.72 12.68 528.75 12.61 528.75 12.40C528.75 12.24 528.72 12.18 528.56 12.18L527.59 12.18C527.49 12.18 527.46 9.55 527.46 7.76L527.46 5.87C527.46 5.14 527.49 3.70 527.59 3.70L528.50 3.70C528.72 3.70 528.75 3.68 528.75 3.49C528.75 3.25 528.72 3.19 528.56 3.19C528.23 3.19 527.56 3.23 526.90 3.23C526.09 3.23 525.38 3.19 525.15 3.19C524.97 3.19 524.90 3.21 524.90 3.44C524.90 3.68 524.99 3.70 525.15 3.70L526.08 3.70C526.12 3.70 526.19 4.79 526.19 5.71L526.19 7.08C526.19 8.92 526.18 12.18 526.06 12.18L525.14 12.18C524.92 12.18 524.85 12.19 524.85 12.39ZM536.72 7.91C536.72 11.31 539.08 12.87 541.67 12.87C543.45 12.87 545.23 11.90 545.27 11.59C545.44 10.29 545.50 9.70 545.50 9.66C545.50 9.56 545.45 9.52 545.29 9.51C545.23 9.51 545.17 9.49 545.13 9.49C545.02 9.49 544.96 9.53 544.94 9.70L544.75 11.33C544.74 11.45 543.63 12.24 542.07 12.24C539.94 12.24 538.23 10.29 538.23 7.94C538.23 5.42 539.66 3.54 541.66 3.54C543.51 3.54 544.85 5.01 544.85 5.17C544.85 5.29 544.80 6.40 544.80 6.45C544.80 6.59 544.84 6.64 545.10 6.64C545.30 6.64 545.37 6.62 545.37 6.44C545.37 5.73 545.43 3.92 545.43 3.67C545.43 3.47 545.31 3.44 545.10 3.44C544.88 3.44 544.85 3.50 544.85 3.67L544.85 4.05C544.85 4.16 544.81 4.16 544.68 4.06C544.40 3.86 543.42 3.04 541.76 3.04C538.92 3.04 536.72 4.96 536.72 7.91ZM553.88 12.39C553.88 12.63 553.91 12.68 554.11 12.68C554.43 12.68 555.39 12.64 555.81 12.64C556.23 12.64 560.74 12.68 561.06 12.68C561.19 12.68 561.34 12.66 561.34 12.49C561.34 12.07 561.39 11.23 561.39 10.53C561.39 10.39 561.23 10.39 561.11 10.39C560.99 10.39 560.87 10.39 560.87 10.51C560.85 11.06 560.85 11.41 560.83 11.76C560.80 12.01 560.80 12.04 560.70 12.04C560.55 12.04 557.91 12.08 556.42 12.08C556.35 12.08 556.30 10.11 556.26 8.26C556.26 8.06 556.30 8.09 556.44 8.09L558.73 8.09C559.43 8.09 559.45 8.20 559.45 8.30L559.45 9.00C559.45 9.14 559.64 9.14 559.75 9.14C559.85 9.14 559.97 9.13 559.97 9.02C559.97 8.83 559.94 8.33 559.94 7.83C559.94 7.32 559.97 6.83 559.97 6.71C559.97 6.59 559.83 6.58 559.73 6.58C559.62 6.58 559.45 6.59 559.45 6.72L559.45 7.45C559.45 7.62 559.01 7.63 558.73 7.63L556.39 7.63C556.28 7.63 556.26 7.63 556.26 7.45C556.25 6.75 556.23 6.06 556.23 5.46C556.23 5.12 556.23 3.71 556.32 3.71C557.55 3.71 560.06 3.75 560.06 3.81C560.06 3.99 560.01 4.83 560.01 4.89C560.01 5.04 560.08 5.10 560.27 5.10C560.46 5.10 560.53 5.08 560.53 4.94C560.53 3.85 560.59 3.36 560.59 3.09C560.59 2.91 560.50 2.90 560.31 2.90C560.11 2.90 560.11 2.95 560.08 3.11C560.07 3.25 560.14 3.25 559.23 3.25C558.61 3.25 556.47 3.29 555.70 3.29C555.21 3.29 554.27 3.25 554.18 3.25C554.05 3.25 553.99 3.30 553.99 3.49C553.99 3.72 554.06 3.74 554.23 3.74L554.89 3.74C554.95 3.74 555.02 4.79 555.02 5.71C555.02 5.80 555.07 8.27 555.07 9.83L555.07 11.17C555.07 11.84 555.04 12.18 555.02 12.18L554.16 12.18C553.94 12.18 553.88 12.21 553.88 12.39ZM569.56 5.77C569.56 9.07 574.55 8.20 574.55 10.65C574.55 11.59 573.71 12.31 572.73 12.31C571.90 12.31 570.30 11.83 570.28 11.47L570.19 10.15C570.18 9.97 570.11 9.91 569.93 9.91L569.86 9.91C569.65 9.91 569.65 10.00 569.65 10.12C569.65 10.32 569.76 11.66 569.79 12.17C569.80 12.38 571.06 12.85 572.60 12.85C574.17 12.85 575.78 11.87 575.78 10.11C575.78 6.79 570.81 7.87 570.81 5.32C570.81 4.31 571.59 3.56 572.63 3.56C573.65 3.56 574.74 4.58 574.74 4.89C574.74 5.01 574.70 5.73 574.70 5.78C574.70 5.92 574.74 5.99 575.01 5.99C575.25 5.99 575.26 5.94 575.26 5.75C575.26 5.04 575.34 3.68 575.34 3.53C575.34 3.30 575.30 3.29 575.04 3.29C574.81 3.29 574.80 3.32 574.78 3.53C574.78 3.61 574.77 3.78 574.73 3.78C574.67 3.78 574.59 3.74 574.52 3.68C573.72 3.14 573.10 3.08 572.60 3.08C571.07 3.08 569.56 4.17 569.56 5.77ZM593.54 3.49C593.54 3.72 593.66 3.74 593.82 3.74L594.44 3.74C594.50 3.74 594.57 4.79 594.57 5.71C594.57 5.80 594.62 8.27 594.62 9.83L594.62 11.17C594.62 11.84 594.61 12.18 594.55 12.18L593.96 12.18C593.74 12.18 593.67 12.19 593.67 12.39C593.67 12.63 593.68 12.68 593.88 12.68C594.09 12.68 594.93 12.64 595.35 12.64C595.77 12.64 596.71 12.68 597.03 12.68C597.20 12.68 597.23 12.61 597.23 12.40C597.23 12.24 597.20 12.18 597.03 12.18L595.90 12.18C595.84 12.18 595.85 10.16 595.81 8.33C595.81 8.08 595.80 8.09 595.99 8.09L598.42 8.09C599.12 8.09 599.14 8.19 599.14 8.30L599.14 9.16C599.14 9.28 599.33 9.28 599.44 9.28C599.54 9.28 599.66 9.28 599.66 9.17C599.66 8.99 599.63 8.33 599.63 7.83C599.63 7.32 599.66 6.82 599.66 6.69C599.66 6.58 599.55 6.58 599.42 6.58C599.26 6.58 599.14 6.58 599.14 6.71L599.14 7.45C599.14 7.62 598.70 7.63 598.42 7.63L595.99 7.63C595.78 7.63 595.81 7.66 595.81 7.45C595.80 7.13 595.78 6.15 595.78 5.26C595.78 4.52 595.80 3.71 595.87 3.71C597.27 3.71 599.45 3.75 599.75 3.79C599.75 3.96 599.70 4.82 599.70 4.89C599.70 5.04 599.77 5.10 599.96 5.10C600.15 5.10 600.22 5.08 600.22 4.94C600.22 3.85 600.28 3.36 600.28 3.09C600.28 2.93 600.19 2.90 600.00 2.90C599.87 2.90 599.80 2.90 599.77 3.11C599.76 3.25 599.83 3.25 598.88 3.25C598.28 3.25 595.99 3.29 595.25 3.29C594.76 3.29 593.82 3.25 593.73 3.25C593.60 3.25 593.54 3.30 593.54 3.49ZM608.31 8.15C608.31 11.17 610.65 12.80 612.91 12.80C615.69 12.80 617.67 10.89 617.67 8.06C617.67 5.33 615.92 3.11 613.12 3.11C610.51 3.11 608.31 5.10 608.31 8.15ZM609.71 7.77C609.71 5.64 611.00 3.58 612.98 3.58C615.22 3.58 616.29 5.81 616.29 7.94C616.29 10.08 615.19 12.32 612.92 12.32C610.93 12.32 609.71 10.28 609.71 7.77ZM625.77 3.51C625.77 3.72 625.84 3.79 626.04 3.79L626.85 3.77C626.95 3.77 626.99 6.61 626.99 8.55L626.99 10.42C626.99 11.30 626.98 12.18 626.93 12.18L626.33 12.18C626.11 12.18 626.04 12.19 626.04 12.39C626.04 12.63 626.08 12.68 626.28 12.68C626.40 12.68 627.23 12.64 627.65 12.64C628.07 12.64 628.84 12.68 629.16 12.68C629.33 12.68 629.36 12.61 629.36 12.40C629.36 12.24 629.33 12.18 629.16 12.18L628.35 12.18C628.28 12.18 628.19 9.18 628.19 8.37C628.19 8.30 628.19 8.26 628.31 8.26C628.70 8.26 629.30 8.27 629.59 8.27C631.83 8.32 631.97 10.00 631.97 11.68L631.97 12.49C631.97 12.61 632.03 12.64 632.13 12.64C632.13 12.64 633.57 12.68 634.05 12.68C634.21 12.68 634.27 12.64 634.27 12.53C634.27 12.24 634.21 12.18 634.06 12.18L633.42 12.18C633.32 12.18 633.29 12.14 633.26 11.31C633.18 8.99 631.81 8.34 630.90 8.05C630.76 8.01 630.78 8.01 630.90 7.95C631.48 7.69 632.80 6.94 632.80 5.63C632.80 3.63 631.11 3.21 629.71 3.21C629.38 3.21 628.10 3.29 627.68 3.29C627.26 3.29 626.28 3.26 626.05 3.26C625.87 3.26 625.77 3.28 625.77 3.51ZM628.19 7.80L628.19 4.40C628.19 4.05 628.22 3.68 628.26 3.68C628.47 3.65 628.75 3.65 628.98 3.65C630.28 3.65 631.53 4.47 631.53 5.82C631.53 6.99 630.98 7.57 630.32 7.88C630.28 7.90 630.24 7.90 630.17 7.90C629.69 7.88 628.98 7.88 628.38 7.87C628.21 7.87 628.19 7.85 628.19 7.80ZM651.62 7.91C651.62 11.40 653.98 12.89 656.57 12.89C658.46 12.89 660.46 11.89 660.46 11.58C660.46 11.12 660.48 10.68 660.48 10.33C660.48 9.81 660.49 9.56 660.62 9.56L661.05 9.56C661.19 9.56 661.21 9.39 661.21 9.30C661.21 9.18 661.19 9.06 661.05 9.06C660.83 9.06 660.46 9.10 659.79 9.10C659.34 9.10 658.60 9.07 657.92 9.06C657.78 9.06 657.78 9.24 657.78 9.35C657.78 9.45 657.80 9.56 657.93 9.56L659.15 9.56C659.19 9.56 659.25 9.87 659.25 10.33C659.25 10.82 659.23 11.41 659.20 11.65C659.19 11.76 658.55 12.39 656.96 12.39C654.72 12.39 653.13 10.29 653.13 7.94C653.13 5.42 654.68 3.54 656.68 3.54C658.57 3.54 659.75 4.87 659.75 5.03C659.75 5.15 659.69 6.12 659.69 6.17C659.69 6.31 659.74 6.36 660.00 6.36C660.20 6.36 660.27 6.33 660.27 6.15C660.27 5.43 660.31 3.75 660.31 3.56C660.31 3.36 660.21 3.33 660.00 3.33C659.78 3.33 659.75 3.39 659.75 3.56L659.75 3.91C659.75 3.99 659.71 4.02 659.58 3.92C659.30 3.72 658.31 3.08 656.74 3.08C653.90 3.08 651.62 4.79 651.62 7.91ZM669.24 12.39C669.24 12.63 669.27 12.68 669.47 12.68C669.79 12.68 670.75 12.64 671.17 12.64C671.59 12.64 675.95 12.68 676.27 12.68C676.54 12.68 676.61 12.66 676.62 12.49C676.68 12.08 676.91 10.72 676.91 10.60C676.91 10.47 676.76 10.44 676.59 10.43C676.49 10.42 676.41 10.46 676.40 10.56L676.23 11.76C676.19 12.05 676.17 12.03 675.95 12.04C675.79 12.05 673.29 12.12 671.86 12.12C671.82 12.12 671.78 11.38 671.78 10.54L671.78 6.66C671.78 5.40 671.79 3.70 671.89 3.70L672.87 3.70C673.11 3.70 673.13 3.63 673.13 3.44C673.13 3.23 673.12 3.19 672.88 3.19C672.56 3.19 671.62 3.23 671.20 3.23C670.78 3.23 669.84 3.19 669.62 3.19C669.40 3.19 669.34 3.22 669.34 3.44C669.34 3.65 669.38 3.70 669.58 3.70L670.40 3.70C670.45 3.70 670.47 4.23 670.47 4.90L670.47 8.13C670.47 10.07 670.45 12.18 670.36 12.18L669.52 12.18C669.30 12.18 669.24 12.21 669.24 12.39ZM684.46 8.15C684.46 11.17 686.80 12.80 689.05 12.80C691.84 12.80 693.81 10.89 693.81 8.06C693.81 5.33 692.06 3.11 689.26 3.11C686.66 3.11 684.46 5.10 684.46 8.15ZM685.86 7.77C685.86 5.64 687.15 3.58 689.12 3.58C691.36 3.58 692.44 5.81 692.44 7.94C692.44 10.08 691.33 12.32 689.07 12.32C687.08 12.32 685.86 10.28 685.86 7.77ZM701.92 3.51C701.92 3.75 702.00 3.79 702.17 3.79L703.02 3.77C703.08 3.77 703.14 5.52 703.14 7.11L703.14 11.63C703.14 11.93 703.12 12.18 703.09 12.18L702.37 12.18C702.14 12.18 702.07 12.19 702.07 12.39C702.07 12.63 702.10 12.68 702.30 12.68C702.42 12.68 703.37 12.64 703.79 12.64C703.98 12.64 704.49 12.67 705.14 12.67C706.69 12.67 709.10 12.43 709.10 10.23C709.10 8.27 707.28 7.94 706.59 7.84C706.51 7.83 706.50 7.83 706.50 7.81C706.50 7.80 706.54 7.78 706.61 7.76C707.25 7.52 708.69 6.90 708.69 5.54C708.69 3.81 707.22 3.25 705.54 3.25C704.97 3.25 704.37 3.29 703.82 3.29C703.40 3.29 702.39 3.26 702.17 3.26C701.99 3.26 701.92 3.28 701.92 3.51ZM704.37 8.19C704.37 8.12 704.37 8.08 704.48 8.08L704.96 8.08C705.57 8.08 706.22 8.09 706.59 8.22C707.46 8.51 707.78 9.16 707.78 10.14C707.78 11.17 707.32 12.18 705.31 12.18L704.47 12.18C704.38 12.18 704.37 9.02 704.37 8.19ZM704.37 7.59L704.37 6.92C704.37 5.87 704.38 3.71 704.42 3.68C704.48 3.65 704.79 3.63 705.00 3.63C706.41 3.63 707.43 4.41 707.43 5.77C707.43 6.92 706.71 7.46 706.08 7.66C705.99 7.69 705.89 7.70 705.81 7.70C705.73 7.70 705.59 7.69 705.35 7.69L704.55 7.69C704.37 7.69 704.37 7.67 704.37 7.59ZM716.72 12.39C716.72 12.63 716.72 12.68 716.91 12.68C717.08 12.68 717.40 12.64 717.98 12.64C718.59 12.64 719.14 12.68 719.29 12.68C719.46 12.68 719.46 12.61 719.46 12.40C719.46 12.24 719.46 12.18 719.29 12.18L718.21 12.18C718.21 12.18 718.20 12.18 718.20 12.17C718.21 11.87 718.98 9.90 719.33 9.02C719.40 8.83 719.42 8.79 719.63 8.79L722.46 8.79C722.60 8.79 722.60 8.81 722.67 9.03C722.93 9.77 723.65 11.89 723.65 12.17C723.65 12.18 723.63 12.18 723.63 12.18L722.86 12.18C722.64 12.18 722.62 12.19 722.62 12.39C722.62 12.63 722.64 12.68 722.81 12.68C723.13 12.68 724.00 12.64 724.42 12.64C724.84 12.64 725.51 12.68 725.72 12.68C725.86 12.68 725.87 12.61 725.87 12.40C725.87 12.24 725.86 12.18 725.72 12.18L725.23 12.18C725.13 12.18 724.11 9.34 723.55 7.78L721.87 3.07C721.85 3.00 721.78 2.94 721.70 2.94C721.57 2.94 721.48 3.16 721.39 3.35C721.24 3.71 721.00 3.84 720.89 4.13L719.40 7.57C719.22 8.01 717.51 12.18 717.39 12.18L716.97 12.18C716.74 12.18 716.72 12.19 716.72 12.39ZM719.61 8.33C719.61 8.30 719.64 8.23 719.68 8.13L721.06 4.77C721.10 4.66 721.13 4.61 721.15 4.61C721.17 4.61 721.18 4.63 721.22 4.77L722.39 8.18C722.41 8.25 722.43 8.29 722.43 8.32C722.43 8.36 722.40 8.37 722.30 8.37L719.80 8.37C719.61 8.37 719.61 8.34 719.61 8.33ZM733.63 12.39C733.63 12.63 733.66 12.68 733.85 12.68C734.17 12.68 735.14 12.64 735.56 12.64C735.98 12.64 740.33 12.68 740.66 12.68C740.92 12.68 740.99 12.66 741.01 12.49C741.06 12.08 741.30 10.72 741.30 10.60C741.30 10.47 741.15 10.44 740.98 10.43C740.88 10.42 740.80 10.46 740.78 10.56L740.61 11.76C740.57 12.05 740.56 12.03 740.33 12.04C740.18 12.05 737.67 12.12 736.25 12.12C736.20 12.12 736.16 11.38 736.16 10.54L736.16 6.66C736.16 5.40 736.18 3.70 736.27 3.70L737.25 3.70C737.49 3.70 737.52 3.63 737.52 3.44C737.52 3.23 737.51 3.19 737.27 3.19C736.95 3.19 736.01 3.23 735.59 3.23C735.17 3.23 734.23 3.19 734.01 3.19C733.78 3.19 733.73 3.22 733.73 3.44C733.73 3.65 733.77 3.70 733.96 3.70L734.79 3.70C734.83 3.70 734.86 4.23 734.86 4.90L734.86 8.13C734.86 10.07 734.83 12.18 734.75 12.18L733.91 12.18C733.68 12.18 733.63 12.21 733.63 12.39ZM758.79 7.91C758.79 11.31 761.15 12.87 763.74 12.87C765.52 12.87 767.30 11.90 767.34 11.59C767.51 10.29 767.56 9.70 767.56 9.66C767.56 9.56 767.52 9.52 767.35 9.51C767.30 9.51 767.24 9.49 767.20 9.49C767.09 9.49 767.03 9.53 767.00 9.70L766.82 11.33C766.81 11.45 765.70 12.24 764.13 12.24C762.01 12.24 760.30 10.29 760.30 7.94C760.30 5.42 761.73 3.54 763.73 3.54C765.58 3.54 766.92 5.01 766.92 5.17C766.92 5.29 766.86 6.40 766.86 6.45C766.86 6.59 766.91 6.64 767.17 6.64C767.37 6.64 767.44 6.62 767.44 6.44C767.44 5.73 767.49 3.92 767.49 3.67C767.49 3.47 767.38 3.44 767.17 3.44C766.95 3.44 766.92 3.50 766.92 3.67L766.92 4.05C766.92 4.16 766.88 4.16 766.75 4.06C766.47 3.86 765.49 3.04 763.83 3.04C760.98 3.04 758.79 4.96 758.79 7.91ZM775.81 12.39C775.81 12.63 775.85 12.68 776.05 12.68C776.37 12.68 777.13 12.64 777.84 12.64C778.50 12.64 779.30 12.68 779.52 12.68C779.69 12.68 779.72 12.61 779.72 12.40C779.72 12.24 779.69 12.18 779.52 12.18L778.55 12.18C778.46 12.18 778.43 9.55 778.43 7.76L778.43 5.87C778.43 5.14 778.46 3.70 778.55 3.70L779.46 3.70C779.69 3.70 779.72 3.68 779.72 3.49C779.72 3.25 779.69 3.19 779.52 3.19C779.20 3.19 778.53 3.23 777.87 3.23C777.06 3.23 776.34 3.19 776.12 3.19C775.94 3.19 775.87 3.21 775.87 3.44C775.87 3.68 775.95 3.70 776.12 3.70L777.04 3.70C777.08 3.70 777.15 4.79 777.15 5.71L777.15 7.08C777.15 8.92 777.14 12.18 777.03 12.18L776.10 12.18C775.88 12.18 775.81 12.19 775.81 12.39ZM787.35 5.01C787.35 5.17 787.53 5.17 787.65 5.17C787.81 5.17 787.85 5.15 787.86 4.97L787.98 3.89C787.99 3.81 788.54 3.75 789.29 3.75L791.28 3.75C791.34 3.75 791.36 4.35 791.36 4.97C791.36 6.43 791.31 12.18 791.18 12.18L790.31 12.18C790.09 12.18 790.05 12.19 790.05 12.39C790.05 12.63 790.06 12.68 790.26 12.68C790.58 12.68 791.56 12.64 791.98 12.64C792.40 12.64 793.34 12.68 793.66 12.68C793.83 12.68 793.86 12.61 793.86 12.40C793.86 12.24 793.83 12.18 793.66 12.18L792.67 12.18C792.64 12.18 792.64 11.76 792.64 11.31C792.64 9.56 792.72 5.96 792.72 5.92C792.74 5.18 792.74 3.75 792.83 3.75L794.44 3.75C795.16 3.75 795.98 3.78 795.98 3.85C795.98 3.99 795.94 4.90 795.94 4.97C795.94 5.12 796.01 5.17 796.19 5.17C796.39 5.17 796.46 5.17 796.46 5.03C796.46 3.93 796.52 3.40 796.52 3.14C796.52 2.94 796.43 2.94 796.24 2.94C796.08 2.94 796.03 2.98 796.01 3.16C796.01 3.23 795.37 3.28 794.53 3.28L789.53 3.28C788.87 3.28 788.06 3.28 788.06 3.21L788.06 3.07C788.06 2.94 787.93 2.94 787.84 2.94C787.61 2.94 787.58 3.00 787.57 3.19C787.51 3.89 787.35 4.97 787.35 5.01ZM804.13 12.39C804.13 12.63 804.17 12.68 804.37 12.68C804.69 12.68 805.45 12.64 806.16 12.64C806.82 12.64 807.62 12.68 807.84 12.68C808.01 12.68 808.04 12.61 808.04 12.40C808.04 12.24 808.01 12.18 807.84 12.18L806.88 12.18C806.78 12.18 806.75 9.55 806.75 7.76L806.75 5.87C806.75 5.14 806.78 3.70 806.88 3.70L807.79 3.70C808.01 3.70 808.04 3.68 808.04 3.49C808.04 3.25 808.01 3.19 807.84 3.19C807.52 3.19 806.85 3.23 806.19 3.23C805.38 3.23 804.66 3.19 804.44 3.19C804.26 3.19 804.19 3.21 804.19 3.44C804.19 3.68 804.27 3.70 804.44 3.70L805.36 3.70C805.41 3.70 805.48 4.79 805.48 5.71L805.48 7.08C805.48 8.92 805.46 12.18 805.35 12.18L804.43 12.18C804.20 12.18 804.13 12.19 804.13 12.39ZM815.93 12.39C815.93 12.59 815.96 12.64 816.09 12.64C817.54 12.64 821.60 12.68 823.17 12.68C823.30 12.68 823.41 12.66 823.41 12.49C823.41 12.07 823.45 11.21 823.45 10.51C823.45 10.37 823.30 10.37 823.17 10.37C823.07 10.37 822.88 10.39 822.88 10.50C822.86 11.05 822.86 11.41 822.84 11.76C822.81 12.01 822.85 12.04 822.75 12.04L817.99 12.04C817.82 12.04 817.88 11.91 817.98 11.77C819.97 8.37 823.28 3.81 823.28 3.56C823.28 3.35 823.24 3.30 823.06 3.30L817.67 3.30C816.90 3.30 816.89 3.26 816.89 3.22L816.90 3.11C816.91 3.01 816.70 3.00 816.59 3.00C816.40 3.00 816.41 3.05 816.40 3.12C816.27 4.06 816.09 5.11 816.09 5.15C816.09 5.26 816.42 5.29 816.49 5.29C816.62 5.29 816.62 5.19 816.65 5.04C816.66 4.98 816.77 4.27 816.83 3.95C816.84 3.85 816.84 3.84 816.90 3.84L821.27 3.84C821.38 3.84 821.42 3.85 821.42 3.88C821.42 3.89 821.42 3.92 821.39 3.95C819.22 7.38 815.93 12.18 815.93 12.39ZM831.35 12.39C831.35 12.63 831.38 12.68 831.57 12.68C831.89 12.68 832.86 12.64 833.28 12.64C833.70 12.64 838.21 12.68 838.53 12.68C838.66 12.68 838.81 12.66 838.81 12.49C838.81 12.07 838.85 11.23 838.85 10.53C838.85 10.39 838.70 10.39 838.57 10.39C838.46 10.39 838.33 10.39 838.33 10.51C838.32 11.06 838.32 11.41 838.29 11.76C838.26 12.01 838.26 12.04 838.17 12.04C838.01 12.04 835.38 12.08 833.88 12.08C833.81 12.08 833.77 10.11 833.73 8.26C833.73 8.06 833.77 8.09 833.91 8.09L836.19 8.09C836.89 8.09 836.92 8.20 836.92 8.30L836.92 9.00C836.92 9.14 837.10 9.14 837.21 9.14C837.31 9.14 837.44 9.13 837.44 9.02C837.44 8.83 837.41 8.33 837.41 7.83C837.41 7.32 837.44 6.83 837.44 6.71C837.44 6.59 837.30 6.58 837.20 6.58C837.09 6.58 836.92 6.59 836.92 6.72L836.92 7.45C836.92 7.62 836.47 7.63 836.19 7.63L833.85 7.63C833.74 7.63 833.73 7.63 833.73 7.45C833.71 6.75 833.70 6.06 833.70 5.46C833.70 5.12 833.70 3.71 833.78 3.71C835.02 3.71 837.52 3.75 837.52 3.81C837.52 3.99 837.48 4.83 837.48 4.89C837.48 5.04 837.55 5.10 837.73 5.10C837.93 5.10 838.00 5.08 838.00 4.94C838.00 3.85 838.05 3.36 838.05 3.09C838.05 2.91 837.97 2.90 837.77 2.90C837.58 2.90 837.58 2.95 837.55 3.11C837.54 3.25 837.61 3.25 836.70 3.25C836.08 3.25 833.94 3.29 833.17 3.29C832.68 3.29 831.74 3.25 831.64 3.25C831.52 3.25 831.46 3.30 831.46 3.49C831.46 3.72 831.53 3.74 831.70 3.74L832.36 3.74C832.41 3.74 832.48 4.79 832.48 5.71C832.48 5.80 832.54 8.27 832.54 9.83L832.54 11.17C832.54 11.84 832.51 12.18 832.48 12.18L831.63 12.18C831.40 12.18 831.35 12.21 831.35 12.39ZM846.82 12.39C846.82 12.63 846.83 12.68 847.03 12.68C847.21 12.68 847.59 12.64 848.20 12.64C848.83 12.64 849.39 12.68 849.72 12.68C849.88 12.68 849.88 12.61 849.88 12.40C849.88 12.24 849.88 12.18 849.72 12.18L848.51 12.18C848.47 12.18 848.46 11.54 848.46 10.79C848.46 9.46 848.47 7.48 848.47 5.99C848.47 5.25 848.47 4.84 848.48 4.28C848.48 4.02 848.55 4.14 848.68 4.28L855.57 12.66C855.65 12.75 855.74 12.89 855.85 12.89C855.96 12.89 856.03 12.77 856.03 12.54C856.03 12.39 856.20 6.65 856.21 4.48C856.21 4.06 856.24 3.70 856.27 3.70L856.90 3.70C857.12 3.70 857.18 3.68 857.18 3.49C857.18 3.25 857.18 3.19 856.98 3.19C856.79 3.19 856.35 3.23 855.79 3.23C855.18 3.23 854.38 3.19 854.28 3.19C854.11 3.19 854.11 3.26 854.11 3.47C854.11 3.64 854.11 3.70 854.28 3.70L855.58 3.70C855.60 3.70 855.60 4.33 855.60 4.44C855.60 5.85 855.62 8.33 855.62 9.70L855.62 10.29C855.62 10.57 855.61 10.65 855.39 10.37L849.70 3.39C849.59 3.25 849.56 3.19 849.39 3.19C849.31 3.19 848.93 3.23 848.62 3.23C848.33 3.23 847.25 3.19 847.06 3.19C846.89 3.19 846.86 3.26 846.86 3.47C846.86 3.64 846.89 3.70 847.06 3.70L847.97 3.70C847.97 4.17 847.92 8.53 847.85 10.79C847.83 11.69 847.84 12.18 847.73 12.18L847.08 12.18C846.86 12.18 846.82 12.19 846.82 12.39ZM865.42 5.77C865.42 9.07 870.41 8.20 870.41 10.65C870.41 11.59 869.57 12.31 868.59 12.31C867.76 12.31 866.17 11.83 866.14 11.47L866.05 10.15C866.04 9.97 865.97 9.91 865.79 9.91L865.72 9.91C865.51 9.91 865.51 10.00 865.51 10.12C865.51 10.32 865.62 11.66 865.65 12.17C865.66 12.38 866.92 12.85 868.46 12.85C870.03 12.85 871.64 11.87 871.64 10.11C871.64 6.79 866.67 7.87 866.67 5.32C866.67 4.31 867.45 3.56 868.49 3.56C869.51 3.56 870.60 4.58 870.60 4.89C870.60 5.01 870.56 5.73 870.56 5.78C870.56 5.92 870.60 5.99 870.87 5.99C871.11 5.99 871.12 5.94 871.12 5.75C871.12 5.04 871.21 3.68 871.21 3.53C871.21 3.30 871.16 3.29 870.90 3.29C870.67 3.29 870.66 3.32 870.65 3.53C870.65 3.61 870.63 3.78 870.59 3.78C870.53 3.78 870.45 3.74 870.38 3.68C869.58 3.14 868.97 3.08 868.46 3.08C866.94 3.08 865.42 4.17 865.42 5.77Z"></path></g></svg>